<svg width="37" height="35" viewBox="0 0 37 35" fill="none" xmlns="http://www.w3.org/2000/svg">
<path d="M26.2031 27.5922H9.07794L4.89413 4.58869C4.84518 4.31321 4.70148 4.06351 4.48789 3.88278C4.2743 3.70205 4.00425 3.60166 3.72447 3.59898H1.01024" stroke="#334A9F" stroke-width="2" stroke-linecap="round" stroke-linejoin="round"/>
<path d="M10.6075 33.5904C12.2639 33.5904 13.6067 32.2477 13.6067 30.5913C13.6067 28.9349 12.2639 27.5922 10.6075 27.5922C8.95113 27.5922 7.60836 28.9349 7.60836 30.5913C7.60836 32.2477 8.95113 33.5904 10.6075 33.5904Z" stroke="#334A9F" stroke-width="2" stroke-linecap="round" stroke-linejoin="round"/>
<path d="M26.2031 33.5904C27.8595 33.5904 29.2022 32.2477 29.2022 30.5913C29.2022 28.9349 27.8595 27.5922 26.2031 27.5922C24.5467 27.5922 23.2039 28.9349 23.2039 30.5913C23.2039 32.2477 24.5467 33.5904 26.2031 33.5904Z" stroke="#334A9F" stroke-width="2" stroke-linecap="round" stroke-linejoin="round"/>
<path d="M7.98326 21.5939H26.8179C27.3787 21.5956 27.9221 21.3996 28.3527 21.0403C28.7833 20.681 29.0735 20.1814 29.1722 19.6294L31.0017 9.59727H5.80887" stroke="#334A9F" stroke-width="2" stroke-linecap="round" stroke-linejoin="round"/>
</svg>
