<svg width="86" height="33" viewBox="0 0 86 33" fill="none" xmlns="http://www.w3.org/2000/svg">
<path d="M49.91448842419716 13.440627333831216V15.09260642270351Q49.2714712471994 14.805078416728902 48.659820761762504 14.658700522778194Q48.048170276325614 14.512322628827484 47.50448095593727 14.512322628827484Q46.78304705003734 14.512322628827484 46.43801344286781 14.710978342046303Q46.09297983569828 14.909634055265123 46.09297983569828 15.327856609410007Q46.09297983569828 15.64152352501867 46.32561613144137 15.816654219566841Q46.55825242718446 15.991784914115012 47.16990291262136 16.11725168035848L48.02725914861837 16.28976848394324Q49.328976848394326 16.551157580283792 49.877893950709485 17.08439133681852Q50.42681105302464 17.617625093353247 50.42681105302464 18.600448095593727Q50.42681105302464 19.891710231516058 49.660941000746824 20.52165795369679Q48.895070948469005 21.15160567587752 47.32150858849888 21.15160567587752Q46.57916355489171 21.15160567587752 45.83159073935773 21.010455563853622Q45.08401792382375 20.869305451829725 44.336445108289766 20.59223300970874V18.893203883495147Q45.08401792382375 19.290515309932786 45.781926811053026 19.491784914115012Q46.4798356982823 19.693054518297238 47.12808065720687 19.693054518297238Q47.78678117998506 19.693054518297238 48.1370425690814 19.473487677371175Q48.48730395817775 19.253920836445108 48.48730395817775 18.846153846153847Q48.48730395817775 18.480209111277073 48.24943988050784 18.28155339805825Q48.01157580283794 18.08289768483943 47.300597460791636 17.926064227035102L46.52165795369679 17.753547423450335Q45.350634802091115 17.502613890963406 44.80955937266617 16.953696788648244Q44.26848394324122 16.404779686333086 44.26848394324122 15.474234503360716Q44.26848394324122 14.308439133681851 45.02128454070201 13.681105302464525Q45.77408513816281 13.053771471247199 47.18558625840179 13.053771471247199Q47.82860343539955 13.053771471247199 48.508215085884984 13.150485436893204Q49.187826736370425 13.24719940253921 49.91448842419716 13.440627333831216Z M52.11015683345781 15.14488424197162H53.98170276325616V21.0H52.11015683345781ZM52.11015683345781 12.865571321882001H53.98170276325616V14.39208364451083H52.11015683345781Z M59.763629574309185 20.0067214339059Q59.37677371172517 20.519044062733382 58.91150112023899 20.759522031366693Q58.446228528752805 21.0 57.83457804331591 21.0Q56.76288274831964 21.0 56.06235997012696 20.155713218820015Q55.36183719193428 19.31142643764003 55.36183719193428 18.004480955937268Q55.36183719193428 16.692307692307693 56.06235997012696 15.85324869305452Q56.76288274831964 15.014189693801345 57.83457804331591 15.014189693801345Q58.446228528752805 15.014189693801345 58.91150112023899 15.254667662434652Q59.37677371172517 15.495145631067961 59.763629574309185 16.012696041822256V15.14488424197162H61.64563106796117V20.40926064227035Q61.64563106796117 21.820761762509335 60.75429424943988 22.56572068707991Q59.8629574309186 23.310679611650485 58.169156086631816 23.310679611650485Q57.62023898431666 23.310679611650485 57.107916355489174 23.22703510082151Q56.59559372666169 23.14339058999253 56.078043315907394 22.97087378640777V21.512322628827484Q56.56945481702763 21.79462285287528 57.03995519044063 21.933159073935773Q57.510455563853625 22.071695294996267 57.98618371919343 22.071695294996267Q58.906273338312175 22.071695294996267 59.33495145631068 21.669156086631816Q59.763629574309185 21.266616878267364 59.763629574309185 20.40926064227035ZM58.52987303958178 16.362957430918595Q57.94958924570575 16.362957430918595 57.62546676624346 16.7916355489171Q57.30134428678118 17.220313666915608 57.30134428678118 18.004480955937268Q57.30134428678118 18.80955937266617 57.615011202389844 19.225168035847645Q57.92867811799851 19.640776699029125 58.52987303958178 19.640776699029125Q59.11538461538461 19.640776699029125 59.4395070948469 19.21209858103062Q59.763629574309185 18.783420463032115 59.763629574309185 18.004480955937268Q59.763629574309185 17.220313666915608 59.4395070948469 16.7916355489171Q59.11538461538461 16.362957430918595 58.52987303958178 16.362957430918595Z M69.33047050037341 17.434652725914862V21.0H67.44846900672144V20.419716206123972V18.27109783420463Q67.44846900672144 17.51306945481703 67.41448842419717 17.22554144884242Q67.3805078416729 16.938013442867813 67.29686333084392 16.802091112770725Q67.18707991038089 16.619118745332337 66.99887976101569 16.51717699775952Q66.81067961165049 16.415235250186704 66.57020164301717 16.415235250186704Q65.98469006721434 16.415235250186704 65.65011202389843 16.86743838685586Q65.31553398058253 17.319641523525018 65.31553398058253 18.11949215832711V21.0H63.44398805078417V15.14488424197162H65.31553398058253V16.002240477968634Q65.73898431665422 15.48991784914115 66.21471247199403 15.246825989544437Q66.69044062733383 15.003734129947722 67.26549663928304 15.003734129947722Q68.27968633308438 15.003734129947722 68.80507841672889 15.625840179238239Q69.33047050037341 16.247946228528754 69.33047050037341 17.434652725914862Z M74.87714712471994 13.194921583271098H76.88984316654219V21.0H74.87714712471994Z M84.66355489171022 17.434652725914862V21.0H82.78155339805825V20.419716206123972V18.27109783420463Q82.78155339805825 17.51306945481703 82.74757281553397 17.22554144884242Q82.7135922330097 16.938013442867813 82.62994772218073 16.802091112770725Q82.5201643017177 16.619118745332337 82.3319641523525 16.51717699775952Q82.1437640029873 16.415235250186704 81.90328603435398 16.415235250186704Q81.31777445855116 16.415235250186704 80.98319641523526 16.86743838685586Q80.64861837191934 17.319641523525018 80.64861837191934 18.11949215832711V21.0H78.77707244212098V15.14488424197162H80.64861837191934V16.002240477968634Q81.07206870799104 15.48991784914115 81.54779686333083 15.246825989544437Q82.02352501867064 15.003734129947722 82.59858103061985 15.003734129947722Q83.61277072442121 15.003734129947722 84.13816280806572 15.625840179238239Q84.66355489171022 16.247946228528754 84.66355489171022 17.434652725914862Z" fill="#334A9F"/>
<path d="M17.3426 22.5652C23.2976 22.5652 28.1251 17.7376 28.1251 11.7826C28.1251 5.82752 23.2976 0.999996 17.3426 0.999996C11.3875 0.999996 6.55997 5.82752 6.55997 11.7826C6.55997 17.7376 11.3875 22.5652 17.3426 22.5652Z" stroke="#334A9F" stroke-width="2" stroke-miterlimit="10"/>
<path d="M1.00018 31.9998C2.65621 29.1308 5.03831 26.7484 7.90702 25.092C10.7757 23.4356 14.0299 22.5635 17.3425 22.5635C20.6551 22.5635 23.9093 23.4356 26.778 25.092C29.6467 26.7484 32.0289 29.1308 33.6849 31.9998" stroke="#334A9F" stroke-width="2" stroke-linecap="round" stroke-linejoin="round"/>
</svg>
