<svg width="86" height="33" viewBox="0 0 86 33" fill="none" xmlns="http://www.w3.org/2000/svg">
<path d="M50.057264957264955 12.36068376068376V13.53931623931624Q49.36923076923077 13.21025641025641 48.758974358974356 13.048717948717947Q48.14871794871795 12.887179487179486 47.580341880341884 12.887179487179486Q46.593162393162395 12.887179487179486 46.05769230769231 13.27008547008547Q45.522222222222226 13.652991452991452 45.522222222222226 14.358974358974358Q45.522222222222226 14.95128205128205 45.87820512820513 15.253418803418803Q46.23418803418804 15.555555555555555 47.22735042735043 15.74102564102564L47.957264957264954 15.890598290598291Q49.30940170940171 16.14786324786325 49.952564102564104 16.797008547008545Q50.595726495726495 17.446153846153845 50.595726495726495 18.535042735042737Q50.595726495726495 19.833333333333332 49.72521367521367 20.503418803418803Q48.85470085470085 21.173504273504275 47.17350427350427 21.173504273504275Q46.53931623931624 21.173504273504275 45.82435897435897 21.029914529914528Q45.10940170940171 20.886324786324785 44.343589743589746 20.605128205128207V19.36068376068376Q45.07948717948718 19.773504273504273 45.78547008547008 19.982905982905983Q46.49145299145299 20.192307692307693 47.17350427350427 20.192307692307693Q48.20854700854701 20.192307692307693 48.77094017094017 19.785470085470088Q49.333333333333336 19.37863247863248 49.333333333333336 18.624786324786324Q49.333333333333336 17.966666666666665 48.92948717948718 17.595726495726495Q48.52564102564103 17.224786324786326 47.60427350427351 17.03931623931624L46.868376068376065 16.895726495726496Q45.516239316239314 16.626495726495726 44.911965811965814 16.052136752136754Q44.30769230769231 15.477777777777778 44.30769230769231 14.454700854700853Q44.30769230769231 13.27008547008547 45.142307692307696 12.588034188034186Q45.97692307692308 11.905982905982905 47.442735042735045 11.905982905982905Q48.07094017094017 11.905982905982905 48.72307692307692 12.019658119658118Q49.37521367521367 12.133333333333333 50.057264957264955 12.36068376068376Z M52.432478632478634 14.299145299145298H53.53333333333333V21.0H52.432478632478634ZM52.432478632478634 11.69059829059829H53.53333333333333V13.084615384615384H52.432478632478634Z M60.246153846153845 17.57179487179487Q60.246153846153845 16.375213675213676 59.75256410256411 15.717094017094016Q59.25897435897436 15.058974358974359 58.36752136752137 15.058974358974359Q57.48205128205128 15.058974358974359 56.988461538461536 15.717094017094016Q56.4948717948718 16.375213675213676 56.4948717948718 17.57179487179487Q56.4948717948718 18.762393162393163 56.988461538461536 19.42051282051282Q57.48205128205128 20.07863247863248 58.36752136752137 20.07863247863248Q59.25897435897436 20.07863247863248 59.75256410256411 19.42051282051282Q60.246153846153845 18.762393162393163 60.246153846153845 17.57179487179487ZM61.34700854700855 20.16837606837607Q61.34700854700855 21.879487179487178 60.58717948717949 22.714102564102564Q59.82735042735043 23.54871794871795 58.25982905982906 23.54871794871795Q57.67948717948718 23.54871794871795 57.164957264957266 23.46196581196581Q56.65042735042735 23.375213675213676 56.16581196581197 23.195726495726497V22.124786324786324Q56.65042735042735 22.388034188034187 57.12307692307692 22.513675213675214Q57.595726495726495 22.63931623931624 58.08632478632479 22.63931623931624Q59.16923076923077 22.63931623931624 59.70769230769231 22.073931623931625Q60.246153846153845 21.50854700854701 60.246153846153845 20.365811965811965V19.82136752136752Q59.90512820512821 20.413675213675212 59.37264957264958 20.706837606837606Q58.84017094017094 21.0 58.0982905982906 21.0Q56.865811965811965 21.0 56.11196581196582 20.06068376068376Q55.35811965811966 19.12136752136752 55.35811965811966 17.57179487179487Q55.35811965811966 16.016239316239314 56.11196581196582 15.076923076923077Q56.865811965811965 14.137606837606837 58.0982905982906 14.137606837606837Q58.84017094017094 14.137606837606837 59.37264957264958 14.43076923076923Q59.90512820512821 14.723931623931623 60.246153846153845 15.316239316239315V14.299145299145298H61.34700854700855Z M69.18461538461538 16.955555555555556V21.0H68.08376068376069V16.99145299145299Q68.08376068376069 16.04017094017094 67.71282051282051 15.567521367521366Q67.34188034188034 15.094871794871795 66.60000000000001 15.094871794871795Q65.70854700854701 15.094871794871795 65.1940170940171 15.663247863247864Q64.67948717948718 16.231623931623933 64.67948717948718 17.212820512820514V21.0H63.572649572649574V14.299145299145298H64.67948717948718V15.340170940170939Q65.07435897435897 14.735897435897435 65.60982905982905 14.436752136752137Q66.14529914529915 14.137606837606837 66.84529914529915 14.137606837606837Q68.0 14.137606837606837 68.59230769230768 14.852564102564102Q69.18461538461538 15.567521367521367 69.18461538461538 16.955555555555556Z M75.32307692307693 12.067521367521367H76.53162393162394V21.0H75.32307692307693Z M84.45897435897436 16.955555555555556V21.0H83.35811965811966V16.99145299145299Q83.35811965811966 16.04017094017094 82.98717948717949 15.567521367521366Q82.61623931623932 15.094871794871795 81.87435897435898 15.094871794871795Q80.98290598290599 15.094871794871795 80.46837606837607 15.663247863247864Q79.95384615384616 16.231623931623933 79.95384615384616 17.212820512820514V21.0H78.84700854700856V14.299145299145298H79.95384615384616V15.340170940170939Q80.34871794871795 14.735897435897435 80.88418803418804 14.436752136752137Q81.41965811965812 14.137606837606837 82.11965811965813 14.137606837606837Q83.27435897435898 14.137606837606837 83.86666666666667 14.852564102564102Q84.45897435897436 15.567521367521367 84.45897435897436 16.955555555555556Z" fill="#334A9F"/>
<path d="M17.3426 22.5652C23.2976 22.5652 28.1251 17.7376 28.1251 11.7826C28.1251 5.82752 23.2976 0.999996 17.3426 0.999996C11.3875 0.999996 6.55997 5.82752 6.55997 11.7826C6.55997 17.7376 11.3875 22.5652 17.3426 22.5652Z" stroke="#334A9F" stroke-width="2" stroke-miterlimit="10"/>
<path d="M1.00018 31.9998C2.65621 29.1308 5.03831 26.7484 7.90702 25.092C10.7757 23.4356 14.0299 22.5635 17.3425 22.5635C20.6551 22.5635 23.9093 23.4356 26.778 25.092C29.6467 26.7484 32.0289 29.1308 33.6849 31.9998" stroke="#334A9F" stroke-width="2" stroke-linecap="round" stroke-linejoin="round"/>
</svg>
