<svg width="86" height="33" viewBox="0 0 86 33" fill="none" xmlns="http://www.w3.org/2000/svg">
<path d="M45.2327 10.994H47.3927C48.0587 10.994 49.2647 11.048 50.1467 11.75C50.5247 12.038 51.2267 12.776 51.2267 14.2339C51.2267 14.8279 51.1007 15.8719 50.0387 16.5919C51.7127 17.0059 52.3247 18.4639 52.3247 19.6159C52.3247 20.7679 51.7487 21.7039 51.1007 22.2079C50.1467 22.9639 49.0487 22.9999 48.2207 22.9999H45.2327V10.994ZM46.5647 12.254V16.2679H47.5727C48.2747 16.2679 49.9307 16.1239 49.9307 14.2699C49.9307 12.29 47.9867 12.254 47.6087 12.254H46.5647ZM46.5647 17.4559V21.7399H48.0947C48.8687 21.7399 49.6247 21.6859 50.2007 21.2359C50.6687 20.8939 50.9927 20.2999 50.9927 19.5799C50.9927 18.6259 50.4347 18.0679 49.9667 17.8159C49.5167 17.5639 48.8867 17.4559 47.9327 17.4559H46.5647ZM57.9456 23.2159C55.6776 23.2159 53.9856 21.5599 53.9856 19.2919C53.9856 17.0239 55.6596 15.3499 57.9456 15.3499C60.2316 15.3499 61.9056 17.0239 61.9056 19.2919C61.9056 21.5599 60.2136 23.2159 57.9456 23.2159ZM57.9456 16.5019C56.5776 16.5019 55.3176 17.4739 55.3176 19.2919C55.3176 21.1279 56.6136 22.0639 57.9456 22.0639C59.2956 22.0639 60.5736 21.1099 60.5736 19.2919C60.5736 17.4559 59.3136 16.5019 57.9456 16.5019ZM63.893 15.5299H65.189V20.4619L70.301 14.9539V22.9999H69.005V18.0139L63.893 23.5219V15.5299ZM64.541 12.308L65.621 11.894C65.801 12.506 66.305 12.974 67.151 12.974C67.997 12.974 68.501 12.506 68.681 11.894L69.761 12.308C69.383 13.37 68.411 14.0539 67.151 14.0539C65.891 14.0539 64.919 13.37 64.541 12.308ZM77.6483 16.7179H75.3083V22.9999H74.0124V16.7179H71.6724V15.5299H77.6483V16.7179ZM79.0101 15.5299H80.3061V20.4619L85.4181 14.9539V22.9999H84.1221V18.0139L79.0101 23.5219V15.5299Z" fill="#334A9F"/>
<path d="M17.3426 22.5652C23.2976 22.5652 28.1251 17.7376 28.1251 11.7826C28.1251 5.82752 23.2976 0.999996 17.3426 0.999996C11.3875 0.999996 6.55997 5.82752 6.55997 11.7826C6.55997 17.7376 11.3875 22.5652 17.3426 22.5652Z" stroke="#334A9F" stroke-width="2" stroke-miterlimit="10"/>
<path d="M1.00018 31.9998C2.65621 29.1308 5.03831 26.7484 7.90702 25.092C10.7757 23.4356 14.0299 22.5635 17.3425 22.5635C20.6551 22.5635 23.9093 23.4356 26.778 25.092C29.6467 26.7484 32.0289 29.1308 33.6849 31.9998" stroke="#334A9F" stroke-width="2" stroke-linecap="round" stroke-linejoin="round"/>
</svg>
