<svg xmlns="http://www.w3.org/2000/svg" width="1276" height="320" fill="none" viewBox="0 0 1276 320"><path fill="#1470b0" fill-rule="evenodd" d="M69.108 214s-.23-1.4-.307-1.752h-3.318c-.092.275-.551 1.752-.551 1.752h-2.707l3.839-9.156a1.27 1.27 0 0 1 1.346-.84h2l2.1 10h-2.4zm-1.331-6.441-.184-.854c-.122.381-.352.977-.336.961 0 0-.826 2.212-1.025 2.792h2.141c-.107-.503-.596-2.899-.596-2.899m-5.568-1.25a4.3 4.3 0 0 0-1.927-.382c-1.025 0-1.484.427-1.5.854 0 .474.551.778 1.468 1.236 1.484.7 2.172 1.572 2.157 2.716-.015 2.059-1.774 3.4-4.5 3.4a7.9 7.9 0 0 1-2.875-.533l.351-2.243.352.168c.751.369 1.58.553 2.417.534a1.347 1.347 0 0 0 1.56-.977c0-.442-.336-.763-1.346-1.251-.979-.472-2.279-1.265-2.264-2.7.016-1.937 1.805-3.3 4.36-3.3a6.6 6.6 0 0 1 2.325.411l-.352 2.167zM50.829 214l1.622-10h2.585l-1.621 10zm-6.225 0-2.305-8.671q-.119-.067-.242-.132H43.6l.57.4 1.046 1.6.444 1.226.2 1.013.276 1.373L48.673 204h2.738l-4.069 10H44.6z" clip-rule="evenodd"/><path fill="#ffb927" fill-rule="evenodd" d="M43.435 206.494a6 6 0 0 0-1-.633l-.147-.554c-.73-.43-1.51-.769-2.323-1.009v-.31h3.971a1.04 1.04 0 0 1 1.015.825l.86 4.407a10.8 10.8 0 0 0-2.376-2.726" clip-rule="evenodd"/><path fill="#e70025" d="M335 216a8 8 0 1 0 0-16 8 8 0 0 0 0 16"/><path fill="#f59e2d" d="M343 216a8 8 0 1 0 0-16 8 8 0 0 0 0 16"/><path fill="#fc5d1d" fill-rule="evenodd" d="M339 214.921a7.988 7.988 0 0 1 0-13.842 7.988 7.988 0 0 1 0 13.842" clip-rule="evenodd"/></svg>