<svg width="32" height="33" viewBox="0 0 32 33" fill="none" xmlns="http://www.w3.org/2000/svg">
<path fill-rule="evenodd" clip-rule="evenodd" d="M32 16.1328C32 7.29626 24.8366 0.132812 16 0.132812C7.16344 0.132812 0 7.29626 0 16.1328C0 24.9694 7.16344 32.1328 16 32.1328C24.8366 32.1328 32 24.9694 32 16.1328Z" fill="#F6F9FE"/>
<path d="M6.52596 22.1511L3.47656 10.5625H5.45293L7.82412 19.499L10.309 10.5625H12.1722L14.7131 19.5567L17.0283 10.5625H19.0612L16.0118 22.1511H13.6967L11.2689 13.5028L8.84058 22.1511H6.52596Z" fill="#222222"/>
<path d="M27.8519 18.8648C27.8519 19.7872 27.507 20.5946 26.8748 21.2288C26.185 21.8629 25.3807 22.1511 24.4036 22.1511H19.4607V10.5625H24.0012C24.9782 10.5625 25.7832 10.9085 26.4153 11.4849C27.1051 12.119 27.3924 12.8687 27.3924 13.791C27.3924 14.8289 26.9899 15.5785 26.2432 16.1549C27.2778 16.6736 27.8524 17.6537 27.8524 18.8648H27.8519ZM21.3573 12.35V15.4059H24.0587C24.8637 15.4059 25.4958 14.7717 25.4958 13.9071C25.4958 13.0425 24.8637 12.3506 24.0587 12.3506H21.3573V12.35ZM24.4036 20.4213C25.2655 20.4213 25.9553 19.6717 25.9553 18.7493C25.9553 17.827 25.2655 17.1351 24.4036 17.1351H21.3573V20.4213H24.4036Z" fill="#222222"/>
</svg>
