<svg xmlns="http://www.w3.org/2000/svg" viewBox="0 0 432.107 103.352" role="img" aria-label="American Creator"><path fill="#334A9F" fill-rule="nonzero" d="M340.361 0H385.218V31.597H340.361Z M3.838 51.538L0 51.538L23.267 18.195L28.545 18.195L39.819 51.538L35.789 51.538L33.007 43.19L9.595 43.19L3.838 51.538M12.089 39.832L31.855 39.832L25.426 20.594L12.089 39.832M97.437 18.195L90.049 18.195L68.124 46.644L56.37 18.195L48.982 18.195L42.985 51.538L46.44 51.538L51.956 20.882L53.924 20.882L66.349 51.538L68.124 51.538L91.584 20.882L93.503 20.882L87.986 51.538L91.44 51.538L97.437 18.195M97.197 51.538L103.194 18.195L132.698 18.195L132.074 21.554L106.024 21.554L104.057 32.636L129.436 32.636L128.812 35.994L103.434 35.994L101.275 48.18L127.325 48.18L126.701 51.538L97.197 51.538M141.621 21.65L139.318 34.507L160.875 34.507C163.17 34.507 164.993 33.979 166.336 32.924C167.831 31.74 168.807 29.837 169.255 27.215C169.319 26.767 169.35 26.431 169.35 26.207C169.35 24.864 168.823 23.768 167.767 22.921C166.72 22.073 165.265 21.65 163.41 21.65L141.621 21.65M138.694 37.865L136.248 51.538L132.794 51.538L138.79 18.292L162.778 18.292C166.264 18.292 168.855 18.979 170.55 20.354C172.085 21.601 172.853 23.377 172.853 25.68C172.853 26.095 172.853 26.511 172.853 26.927C172.757 27.342 172.693 27.647 172.661 27.839C172.245 30.077 171.429 31.868 170.214 33.212C169.414 34.107 168.183 34.986 166.52 35.85C167.415 36.042 168.135 36.578 168.679 37.458C169.222 38.337 169.494 39.56 169.494 41.128C169.494 41.511 169.478 41.927 169.447 42.375C169.414 42.822 169.35 43.286 169.255 43.766L167.863 51.538L164.409 51.538L165.896 43.382C165.929 43.062 165.968 42.758 166.016 42.471C166.064 42.183 166.088 41.863 166.088 41.511C166.088 40.168 165.72 39.224 164.985 38.681C164.249 38.137 163.13 37.865 161.627 37.865L138.694 37.865M179.329 51.538L175.875 51.538L181.872 18.195L185.326 18.195L179.329 51.538M213.391 51.634L198.807 51.634C195.065 51.634 192.37 51.019 190.723 49.787C189.076 48.555 188.252 46.501 188.252 43.622C188.252 42.567 188.38 41.272 188.636 39.736L190.411 30.045C191.243 25.664 192.746 22.537 194.92 20.667C197.096 18.795 200.406 17.86 204.852 17.86L219.436 17.86C226.504 17.86 230.039 20.29 230.039 25.152C230.039 25.568 230.039 25.983 230.039 26.399C229.942 26.847 229.878 27.167 229.847 27.359L226.392 27.359C226.488 26.815 226.536 26.319 226.536 25.872C226.536 24.336 225.993 23.201 224.905 22.465C223.69 21.634 221.691 21.218 218.908 21.218L204.324 21.218C200.934 21.218 198.495 21.833 197.008 23.065C195.52 24.296 194.473 26.623 193.865 30.045L192.09 39.736C191.867 40.855 191.754 41.927 191.754 42.95C191.754 44.933 192.338 46.317 193.505 47.1C194.673 47.884 196.648 48.276 199.431 48.276L214.015 48.276C217.117 48.276 219.412 47.788 220.899 46.812C222.386 45.837 223.322 44.278 223.705 42.135L227.16 42.135C226.584 45.365 225.225 47.756 223.082 49.307C220.939 50.858 217.709 51.634 213.391 51.634M232.485 51.538L228.647 51.538L251.914 18.195L257.192 18.195L268.466 51.538L264.436 51.538L261.654 43.19L238.242 43.19L232.485 51.538M240.737 39.832L260.502 39.832L254.073 20.594L240.737 39.832M271.632 51.538L277.63 18.195L285.305 18.195L305.55 48.084L310.924 18.195L314.378 18.195L308.381 51.538L303.392 51.538L282.522 20.786L280.604 20.786L275.087 51.538L271.632 51.538 M115.672 103.352L101.088 103.352C97.346 103.352 94.651 102.737 93.005 101.505C91.357 100.274 90.533 98.219 90.533 95.34C90.533 94.285 90.661 92.99 90.917 91.454L92.692 81.763C93.524 77.382 95.027 74.255 97.202 72.385C99.377 70.513 102.687 69.578 107.133 69.578L121.717 69.578C128.785 69.578 132.32 72.008 132.32 76.87C132.32 77.286 132.32 77.701 132.32 78.117C132.223 78.565 132.16 78.885 132.128 79.077L128.674 79.077C128.769 78.533 128.817 78.037 128.817 77.59C128.817 76.054 128.274 74.919 127.186 74.184C125.971 73.352 123.972 72.936 121.189 72.936L106.605 72.936C103.215 72.936 100.776 73.551 99.289 74.783C97.801 76.014 96.754 78.341 96.146 81.763L94.371 91.454C94.148 92.574 94.036 93.645 94.036 94.668C94.036 96.651 94.619 98.035 95.787 98.819C96.954 99.602 98.929 99.994 101.712 99.994L116.296 99.994C119.399 99.994 121.693 99.506 123.18 98.531C124.668 97.555 125.603 95.996 125.987 93.853L129.441 93.853C128.866 97.083 127.506 99.474 125.363 101.025C123.22 102.577 119.99 103.352 115.672 103.352M143.836 73.368L141.533 86.225L163.09 86.225C165.385 86.225 167.208 85.697 168.551 84.642C170.046 83.458 171.022 81.556 171.47 78.933C171.534 78.485 171.566 78.149 171.566 77.926C171.566 76.582 171.038 75.487 169.982 74.639C168.935 73.792 167.48 73.368 165.625 73.368L143.836 73.368M140.909 89.584L138.463 103.256L135.009 103.256L141.006 70.01L164.993 70.01C168.48 70.01 171.07 70.697 172.765 72.072C174.3 73.32 175.068 75.095 175.068 77.398C175.068 77.813 175.068 78.229 175.068 78.645C174.972 79.061 174.908 79.365 174.876 79.557C174.46 81.795 173.644 83.587 172.429 84.93C171.63 85.825 170.398 86.704 168.735 87.568C169.63 87.76 170.35 88.296 170.894 89.176C171.438 90.055 171.709 91.278 171.709 92.846C171.709 93.229 171.693 93.645 171.662 94.093C171.63 94.54 171.566 95.005 171.47 95.484L170.078 103.256L166.624 103.256L168.111 95.1C168.144 94.78 168.183 94.476 168.232 94.189C168.279 93.901 168.303 93.581 168.303 93.229C168.303 91.886 167.935 90.942 167.2 90.399C166.464 89.855 165.345 89.584 163.842 89.584L140.909 89.584M177.469 103.256L183.466 69.913L212.971 69.913L212.347 73.272L186.297 73.272L184.33 84.354L209.708 84.354L209.084 87.712L183.706 87.712L181.548 99.898L207.598 99.898L206.974 103.256L177.469 103.256M215.612 103.256L211.774 103.256L235.041 69.913L240.319 69.913L251.593 103.256L247.563 103.256L244.781 94.908L221.369 94.908L215.612 103.256M223.864 91.55L243.629 91.55L237.2 72.312L223.864 91.55M260.423 69.913L296.308 69.913L295.685 73.272L279.421 73.272L274.048 103.256L270.594 103.256L275.967 73.272L259.8 73.272L260.423 69.913M334.691 81.188C334.787 80.516 334.867 79.925 334.931 79.413C334.995 78.901 335.027 78.405 335.027 77.926C335.027 75.974 334.483 74.655 333.396 73.968C332.308 73.28 330.373 72.936 327.591 72.936L313.006 72.936C309.808 72.936 307.45 73.52 305.93 74.687C304.411 75.855 303.316 78.021 302.644 81.188L300.725 91.838C300.533 92.893 300.437 93.837 300.437 94.668C300.437 96.651 301.029 98.019 302.212 98.77C303.396 99.522 305.378 99.898 308.161 99.898L322.745 99.898C326.232 99.898 328.614 99.378 329.893 98.339C331.172 97.299 332.132 95.133 332.772 91.838L334.691 81.188M336.274 91.838C335.379 96.475 333.924 99.562 331.909 101.097C330.022 102.536 326.791 103.256 322.218 103.256L307.633 103.256C303.828 103.256 301.093 102.68 299.43 101.529C297.767 100.378 296.935 98.411 296.935 95.628C296.935 94.573 297.063 93.309 297.319 91.838L299.189 81.475C299.989 77.126 301.413 74.087 303.46 72.361C305.634 70.505 309.041 69.578 313.678 69.578L328.262 69.578C331.845 69.578 334.403 70.089 335.939 71.113C337.666 72.264 338.529 74.343 338.529 77.35C338.529 78.469 338.401 79.844 338.145 81.475L336.274 91.838M349.806 73.368L347.503 86.225L369.06 86.225C371.354 86.225 373.178 85.697 374.52 84.642C376.016 83.458 376.992 81.556 377.439 78.933C377.503 78.485 377.535 78.149 377.535 77.926C377.535 76.582 377.008 75.487 375.952 74.639C374.904 73.792 373.449 73.368 371.595 73.368L349.806 73.368M346.879 89.584L344.433 103.256L340.978 103.256L346.975 70.01L370.962 70.01C374.449 70.01 377.04 70.697 378.734 72.072C380.27 73.32 381.038 75.095 381.038 77.398C381.038 77.813 381.038 78.229 381.038 78.645C380.941 79.061 380.877 79.365 380.845 79.557C380.429 81.795 379.614 83.587 378.399 84.93C377.599 85.825 376.368 86.704 374.705 87.568C375.6 87.76 376.32 88.296 376.864 89.176C377.407 90.055 377.679 91.278 377.679 92.846C377.679 93.229 377.663 93.645 377.632 94.093C377.599 94.54 377.535 95.005 377.439 95.484L376.048 103.256L372.593 103.256L374.081 95.1C374.113 94.78 374.153 94.476 374.201 94.189C374.249 93.901 374.273 93.581 374.273 93.229C374.273 91.886 373.905 90.942 373.169 90.399C372.434 89.855 371.314 89.584 369.811 89.584L346.879 89.584"/><path fill="#EF3D2E" fill-rule="nonzero" d="M340.361 50.556H432.107V56.875H340.361Z M340.361 37.917H432.107V44.236H340.361Z M385.218 25.278H432.107V31.597H385.218Z M385.218 12.639H432.107V18.958H385.218Z M385.218 0H432.107V6.319H385.218Z"/><path fill="#E5E6E7" fill-rule="nonzero" d="M340.361 44.236H432.107V50.556H340.361Z M340.361 31.597H432.107V37.917H340.361Z M385.218 18.958H432.107V25.278H385.218Z M385.218 6.319H432.107V12.639H385.218Z"/><path fill="#FEFEFE" fill-rule="nonzero" d="M346.481 4.24L347.228 6.554L349.659 6.549L347.689 7.974L348.445 10.284L346.481 8.852L344.517 10.284L345.273 7.974L343.303 6.549L345.734 6.554L346.481 4.24 M354.142 4.24L354.889 6.554L357.32 6.549L355.35 7.974L356.106 10.284L354.142 8.852L352.178 10.284L352.934 7.974L350.964 6.549L353.395 6.554L354.142 4.24 M361.803 4.24L362.55 6.554L364.981 6.549L363.012 7.974L363.767 10.284L361.803 8.852L359.839 10.284L360.595 7.974L358.625 6.549L361.056 6.554L361.803 4.24 M369.464 4.24L370.211 6.554L372.642 6.549L370.672 7.974L371.428 10.284L369.464 8.852L367.5 10.284L368.256 7.974L366.286 6.549L368.717 6.554L369.464 4.24 M377.125 4.24L377.872 6.554L380.303 6.549L378.333 7.974L379.089 10.284L377.125 8.852L375.161 10.284L375.917 7.974L373.947 6.549L376.378 6.554L377.125 4.24 M346.481 21.313L347.228 23.626L349.659 23.622L347.689 25.047L348.445 27.357L346.481 25.925L344.517 27.357L345.273 25.047L343.303 23.622L345.734 23.626L346.481 21.313 M354.142 21.313L354.889 23.626L357.32 23.622L355.35 25.047L356.106 27.357L354.142 25.925L352.178 27.357L352.934 25.047L350.964 23.622L353.395 23.626L354.142 21.313 M361.803 21.313L362.55 23.626L364.981 23.622L363.012 25.047L363.767 27.357L361.803 25.925L359.839 27.357L360.595 25.047L358.625 23.622L361.056 23.626L361.803 21.313 M369.464 21.313L370.211 23.626L372.642 23.622L370.672 25.047L371.428 27.357L369.464 25.925L367.5 27.357L368.256 25.047L366.286 23.622L368.717 23.626L369.464 21.313 M377.125 21.313L377.872 23.626L380.303 23.622L378.333 25.047L379.089 27.357L377.125 25.925L375.161 27.357L375.917 25.047L373.947 23.622L376.378 23.626L377.125 21.313 M348.454 12.777L349.201 15.09L351.632 15.086L349.662 16.51L350.418 18.822L348.454 17.388L346.49 18.822L347.246 16.51L345.277 15.086L347.707 15.09L348.454 12.777 M356.115 12.777L356.862 15.09L359.293 15.086L357.324 16.51L358.079 18.822L356.115 17.388L354.151 18.822L354.907 16.51L352.937 15.086L355.369 15.09L356.115 12.777 M363.776 12.777L364.523 15.09L366.954 15.086L364.984 16.51L365.74 18.822L363.776 17.388L361.812 18.822L362.568 16.51L360.598 15.086L363.029 15.09L363.776 12.777 M371.437 12.777L372.184 15.09L374.615 15.086L372.645 16.51L373.401 18.822L371.437 17.388L369.473 18.822L370.229 16.51L368.26 15.086L370.691 15.09L371.437 12.777 M379.098 12.777L379.845 15.09L382.276 15.086L380.307 16.51L381.063 18.822L379.098 17.388L377.134 18.822L377.89 16.51L375.921 15.086L378.351 15.09L379.098 12.777"/></svg>